<svg width="25" height="25" viewBox="0 0 25 25" fill="none" xmlns="http://www.w3.org/2000/svg">
<g id="vuesax/linear/category">
<g id="vuesax/linear/category_2">
<g id="category">
<path id="Vector" d="M5.78125 11.25H7.96875C10.1562 11.25 11.25 10.1563 11.25 7.96875V5.78125C11.25 3.59375 10.1562 2.5 7.96875 2.5H5.78125C3.59375 2.5 2.5 3.59375 2.5 5.78125V7.96875C2.5 10.1563 3.59375 11.25 5.78125 11.25Z" stroke="#111111" stroke-width="1.25" stroke-miterlimit="10" stroke-linecap="round" stroke-linejoin="round"/>
<path id="Vector_2" d="M18.2812 11.25H20.4687C22.6562 11.25 23.75 10.1563 23.75 7.96875V5.78125C23.75 3.59375 22.6562 2.5 20.4687 2.5H18.2812C16.0937 2.5 15 3.59375 15 5.78125V7.96875C15 10.1563 16.0937 11.25 18.2812 11.25Z" stroke="#111111" stroke-width="1.25" stroke-miterlimit="10" stroke-linecap="round" stroke-linejoin="round"/>
<path id="Vector_3" d="M18.2814 23.7495H20.4689C22.6564 23.7495 23.7501 22.6558 23.7501 20.4683V18.2808C23.7501 16.0933 22.6564 14.9995 20.4689 14.9995H18.2814C16.0939 14.9995 15.0001 16.0933 15.0001 18.2808V20.4683C15.0001 22.6558 16.0939 23.7495 18.2814 23.7495Z" stroke="#111111" stroke-width="1.25" stroke-miterlimit="10" stroke-linecap="round" stroke-linejoin="round"/>
<path id="Vector_4" d="M5.78137 23.7495H7.96887C10.1564 23.7495 11.2501 22.6558 11.2501 20.4683V18.2808C11.2501 16.0933 10.1564 14.9995 7.96887 14.9995H5.78137C3.59387 14.9995 2.50012 16.0933 2.50012 18.2808V20.4683C2.50012 22.6558 3.59387 23.7495 5.78137 23.7495Z" stroke="#111111" stroke-width="1.25" stroke-miterlimit="10" stroke-linecap="round" stroke-linejoin="round"/>
</g>
</g>
</g>
</svg>
