<svg width="24" height="24" viewBox="0 0 24 24" fill="none" xmlns="http://www.w3.org/2000/svg">
<g id="Iconly/Light/Filter">
<g id="Filter">
<path id="Stroke 1" d="M10 16.5H4" stroke="black" stroke-width="1.5" stroke-linecap="round" stroke-linejoin="round"/>
<path id="Stroke 3" d="M13 7.5H19" stroke="black" stroke-width="1.5" stroke-linecap="round" stroke-linejoin="round"/>
<path id="Stroke 5" fill-rule="evenodd" clip-rule="evenodd" d="M9 7.5C9 6.11944 7.88056 5 6.5 5C5.11944 5 4 6.11944 4 7.5C4 8.88056 5.11944 10 6.5 10C7.88056 10 9 8.88056 9 7.5Z" stroke="black" stroke-width="1.5" stroke-linecap="round" stroke-linejoin="round"/>
<path id="Stroke 7" fill-rule="evenodd" clip-rule="evenodd" d="M20 16.5C20 15.1194 18.8814 14 17.5009 14C16.1194 14 15 15.1194 15 16.5C15 17.8806 16.1194 19 17.5009 19C18.8814 19 20 17.8806 20 16.5Z" stroke="black" stroke-width="1.5" stroke-linecap="round" stroke-linejoin="round"/>
</g>
</g>
</svg>
