<svg width="21" height="21" viewBox="0 0 21 21" fill="none" xmlns="http://www.w3.org/2000/svg">
<g id="bell">
<path id="Vector" d="M15.375 7.3335C15.375 5.97426 14.835 4.6707 13.8739 3.70957C12.9128 2.74845 11.6092 2.2085 10.25 2.2085C8.89077 2.2085 7.5872 2.74845 6.62608 3.70957C5.66495 4.6707 5.125 5.97426 5.125 7.3335C5.125 13.3127 2.5625 15.021 2.5625 15.021H17.9375C17.9375 15.021 15.375 13.3127 15.375 7.3335Z" stroke="white" stroke-width="2" stroke-linecap="round" stroke-linejoin="round"/>
<path id="Vector_2" d="M11.7277 18.4375C11.5775 18.6964 11.362 18.9113 11.1026 19.0606C10.8433 19.21 10.5493 19.2886 10.25 19.2886C9.9507 19.2886 9.65667 19.21 9.39733 19.0606C9.138 18.9113 8.92245 18.6964 8.77228 18.4375" stroke="white" stroke-width="2" stroke-linecap="round" stroke-linejoin="round"/>
</g>
</svg>
