<svg width="21" height="21" viewBox="0 0 21 21" fill="none" xmlns="http://www.w3.org/2000/svg">
<g id="box">
<path id="Vector" d="M2.79312 5.94512L10.25 10.2587L17.7069 5.94512M10.25 18.8601V10.2501M17.9375 13.6668V6.83345C17.9372 6.53388 17.8581 6.23964 17.7082 5.98028C17.5583 5.72091 17.3428 5.50553 17.0833 5.35574L11.1042 1.93908C10.8445 1.78914 10.5499 1.71021 10.25 1.71021C9.95012 1.71021 9.65553 1.78914 9.39583 1.93908L3.41667 5.35574C3.15722 5.50553 2.94173 5.72091 2.79181 5.98028C2.64189 6.23964 2.56281 6.53388 2.5625 6.83345V13.6668C2.56281 13.9664 2.64189 14.2606 2.79181 14.52C2.94173 14.7793 3.15722 14.9947 3.41667 15.1445L9.39583 18.5612C9.65553 18.7111 9.95012 18.79 10.25 18.79C10.5499 18.79 10.8445 18.7111 11.1042 18.5612L17.0833 15.1445C17.3428 14.9947 17.5583 14.7793 17.7082 14.52C17.8581 14.2606 17.9372 13.9664 17.9375 13.6668Z" stroke="white" stroke-width="2" stroke-linecap="round" stroke-linejoin="round"/>
</g>
</svg>
