<svg width="30" height="31" viewBox="0 0 30 31" fill="none" xmlns="http://www.w3.org/2000/svg">
<g id="Solid/Interface/Collapse">
<g id="Icon">
<path fill-rule="evenodd" clip-rule="evenodd" d="M22.5351 12.7056C22.5351 12.1879 22.1154 11.7681 21.5976 11.7681L18.4818 11.7681V8.65234C18.4818 8.13458 18.0621 7.71484 17.5443 7.71484C17.0266 7.71484 16.6068 8.13458 16.6068 8.65234V12.7056C16.6068 13.2234 17.0266 13.6431 17.5443 13.6431L21.5976 13.6431C22.1154 13.6431 22.5351 13.2234 22.5351 12.7056Z" fill="white"/>
<path fill-rule="evenodd" clip-rule="evenodd" d="M17.5444 22.7852C18.0621 22.7852 18.4819 22.3655 18.4819 21.8478L18.4819 18.7319L21.5977 18.732C22.1154 18.732 22.5352 18.3122 22.5352 17.7945C22.5352 17.2767 22.1154 16.857 21.5977 16.857L17.5444 16.8569C17.0266 16.8569 16.6069 17.2767 16.6069 17.7944L16.6069 21.8477C16.6069 22.3655 17.0266 22.7852 17.5444 22.7852Z" fill="white"/>
<path fill-rule="evenodd" clip-rule="evenodd" d="M12.4555 22.7852C11.9378 22.7852 11.518 22.3655 11.518 21.8477V18.7319H8.40222C7.88445 18.7319 7.46472 18.3122 7.46472 17.7944C7.46472 17.2767 7.88445 16.8569 8.40222 16.8569L12.4555 16.8569C12.9733 16.8569 13.393 17.2767 13.393 17.7944L13.393 21.8477C13.393 22.3655 12.9733 22.7852 12.4555 22.7852Z" fill="white"/>
<path fill-rule="evenodd" clip-rule="evenodd" d="M7.46475 12.7056C7.46475 12.1879 7.88449 11.7681 8.40225 11.7681H11.5181L11.5181 8.65234C11.5181 8.13458 11.9378 7.71484 12.4556 7.71484C12.9733 7.71484 13.3931 8.13458 13.3931 8.65234L13.3931 12.7056C13.3931 13.2234 12.9733 13.6431 12.4556 13.6431L8.40225 13.6431C7.88449 13.6431 7.46475 13.2234 7.46475 12.7056Z" fill="white"/>
</g>
</g>
</svg>
