<svg width="21" height="21" viewBox="0 0 21 21" fill="none" xmlns="http://www.w3.org/2000/svg">
<g id="file-text">
<path id="Vector" d="M11.5417 2H4.70833C4.25526 2 3.82073 2.17998 3.50036 2.50036C3.17998 2.82073 3 3.25526 3 3.70833V17.375C3 17.8281 3.17998 18.2626 3.50036 18.583C3.82073 18.9033 4.25526 19.0833 4.70833 19.0833H14.9583C15.4114 19.0833 15.8459 18.9033 16.1663 18.583C16.4867 18.2626 16.6667 17.8281 16.6667 17.375V7.125M11.5417 2L16.6667 7.125M11.5417 2L11.5417 7.125H16.6667M13.25 11.3958H6.41667M13.25 14.8125H6.41667M8.125 7.97917H6.41667" stroke="white" stroke-width="2" stroke-linecap="round" stroke-linejoin="round"/>
</g>
</svg>
