<svg width="21" height="21" viewBox="0 0 21 21" fill="none" xmlns="http://www.w3.org/2000/svg">
<g id="help-circle">
<path id="Vector" d="M7.76435 7.68766C7.96517 7.1168 8.36155 6.63542 8.88327 6.3288C9.405 6.02217 10.0184 5.91009 10.6149 6.0124C11.2113 6.1147 11.7523 6.4248 12.142 6.88776C12.5317 7.35072 12.745 7.93667 12.7441 8.54183C12.7441 10.2502 10.1816 11.1043 10.1816 11.1043M10.25 14.521H10.2585M18.7916 10.2502C18.7916 14.9676 14.9674 18.7918 10.25 18.7918C5.53255 18.7918 1.70831 14.9676 1.70831 10.2502C1.70831 5.53273 5.53255 1.7085 10.25 1.7085C14.9674 1.7085 18.7916 5.53273 18.7916 10.2502Z" stroke="white" stroke-width="2" stroke-linecap="round" stroke-linejoin="round"/>
</g>
</svg>
