<svg width="22" height="24" viewBox="0 0 22 24" fill="none" xmlns="http://www.w3.org/2000/svg">
<g id="Logo" clip-path="url(#clip0_605_297)">
<path id="Vector" d="M3.59623 23.7298C4.4036 20.1749 5.1745 16.7822 5.96555 13.2963C5.48074 13.2685 5.10058 13.2464 4.60809 13.2176C5.1073 11.0115 5.59595 8.85337 6.11532 6.55892H0C0.470409 4.53521 0.907217 2.65549 1.34883 0.755615H21.251C20.8362 2.60653 20.4513 4.39888 20.0106 6.1778C19.9703 6.33908 19.5767 6.50708 19.3434 6.51092C17.7133 6.53972 16.0832 6.53972 14.4521 6.51956C14.0067 6.5138 13.807 6.65397 13.7119 7.10613C13.2895 9.10873 12.8306 11.1036 12.3708 13.1677C12.8066 13.2109 13.205 13.2493 13.6975 13.2983C13.4643 14.3456 13.2415 15.3383 13.0217 16.3329C12.5292 18.5639 12.0252 20.7922 11.5557 23.028C11.4453 23.5551 11.238 23.7548 10.6706 23.7461C8.3608 23.7125 6.05099 23.7317 3.59623 23.7317V23.7298Z" fill="white"/>
</g>
<defs>
<clipPath id="clip0_605_297">
<rect width="21.25" height="22.9886" fill="white" transform="translate(0 0.755615)"/>
</clipPath>
</defs>
</svg>
