<svg width="20" height="21" viewBox="0 0 20 21" fill="none" xmlns="http://www.w3.org/2000/svg">
<g id="more-vertical">
<path id="Vector" d="M10 11.3332C10.4603 11.3332 10.8334 10.9601 10.8334 10.4998C10.8334 10.0396 10.4603 9.6665 10 9.6665C9.53978 9.6665 9.16669 10.0396 9.16669 10.4998C9.16669 10.9601 9.53978 11.3332 10 11.3332Z" fill="#808080" stroke="#808080" stroke-width="2" stroke-linecap="round" stroke-linejoin="round"/>
<path id="Vector_2" d="M10 5.50016C10.4603 5.50016 10.8334 5.12707 10.8334 4.66683C10.8334 4.20659 10.4603 3.8335 10 3.8335C9.53978 3.8335 9.16669 4.20659 9.16669 4.66683C9.16669 5.12707 9.53978 5.50016 10 5.50016Z" fill="#808080" stroke="#808080" stroke-width="2" stroke-linecap="round" stroke-linejoin="round"/>
<path id="Vector_3" d="M10 17.1667C10.4603 17.1667 10.8334 16.7936 10.8334 16.3333C10.8334 15.8731 10.4603 15.5 10 15.5C9.53978 15.5 9.16669 15.8731 9.16669 16.3333C9.16669 16.7936 9.53978 17.1667 10 17.1667Z" fill="#808080" stroke="#808080" stroke-width="2" stroke-linecap="round" stroke-linejoin="round"/>
</g>
</svg>
