<svg width="21" height="21" viewBox="0 0 21 21" fill="none" xmlns="http://www.w3.org/2000/svg">
<g id="settings" clip-path="url(#clip0_605_331)">
<path id="Vector" d="M10.25 13.3125C11.6652 13.3125 12.8125 12.1652 12.8125 10.75C12.8125 9.33477 11.6652 8.1875 10.25 8.1875C8.83477 8.1875 7.6875 9.33477 7.6875 10.75C7.6875 12.1652 8.83477 13.3125 10.25 13.3125Z" stroke="white" stroke-width="2" stroke-linecap="round" stroke-linejoin="round"/>
<path id="Vector_2" d="M16.5709 13.3123C16.4572 13.57 16.4232 13.8558 16.4735 14.1328C16.5237 14.4099 16.6558 14.6656 16.8527 14.8669L16.904 14.9182C17.0628 15.0768 17.1888 15.2652 17.2748 15.4726C17.3608 15.68 17.405 15.9023 17.405 16.1268C17.405 16.3513 17.3608 16.5736 17.2748 16.781C17.1888 16.9884 17.0628 17.1768 16.904 17.3355C16.7453 17.4943 16.5569 17.6203 16.3495 17.7063C16.1421 17.7922 15.9198 17.8365 15.6953 17.8365C15.4708 17.8365 15.2485 17.7922 15.0411 17.7063C14.8338 17.6203 14.6453 17.4943 14.4867 17.3355L14.4354 17.2842C14.2341 17.0873 13.9784 16.9552 13.7014 16.905C13.4243 16.8547 13.1385 16.8886 12.8809 17.0023C12.6282 17.1106 12.4128 17.2904 12.261 17.5196C12.1092 17.7487 12.0278 18.0173 12.0267 18.2921V18.4373C12.0267 18.8904 11.8467 19.3249 11.5263 19.6453C11.206 19.9657 10.7714 20.1457 10.3184 20.1457C9.86528 20.1457 9.43075 19.9657 9.11038 19.6453C8.79 19.3249 8.61002 18.8904 8.61002 18.4373V18.3605C8.60341 18.0777 8.51189 17.8035 8.34737 17.5735C8.18285 17.3435 7.95294 17.1683 7.68752 17.0707C7.42989 16.957 7.1441 16.923 6.86702 16.9733C6.58993 17.0235 6.33425 17.1556 6.13294 17.3525L6.08169 17.4038C5.92303 17.5626 5.73462 17.6886 5.52723 17.7746C5.31984 17.8606 5.09754 17.9048 4.87304 17.9048C4.64854 17.9048 4.42624 17.8606 4.21885 17.7746C4.01146 17.6886 3.82305 17.5626 3.6644 17.4038C3.50556 17.2451 3.37956 17.0567 3.29358 16.8493C3.20761 16.642 3.16336 16.4197 3.16336 16.1951C3.16336 15.9706 3.20761 15.7483 3.29358 15.541C3.37956 15.3336 3.50556 15.1452 3.6644 14.9865L3.71565 14.9353C3.91256 14.7339 4.04466 14.4783 4.0949 14.2012C4.14514 13.9241 4.11122 13.6383 3.99752 13.3807C3.88924 13.128 3.70946 12.9126 3.48029 12.7608C3.25113 12.609 2.98259 12.5276 2.70773 12.5265H2.56252C2.10944 12.5265 1.67492 12.3465 1.35455 12.0261C1.03417 11.7058 0.854187 11.2712 0.854187 10.8182C0.854187 10.3651 1.03417 9.93057 1.35455 9.6102C1.67492 9.28982 2.10944 9.10984 2.56252 9.10984H2.6394C2.92212 9.10322 3.19632 9.01171 3.42634 8.84719C3.65636 8.68267 3.83157 8.45276 3.92919 8.18734C4.04289 7.92971 4.07681 7.64392 4.02657 7.36683C3.97632 7.08975 3.84423 6.83406 3.64731 6.63275L3.59606 6.5815C3.43723 6.42285 3.31122 6.23444 3.22525 6.02705C3.13928 5.81966 3.09503 5.59736 3.09503 5.37286C3.09503 5.14836 3.13928 4.92606 3.22525 4.71867C3.31122 4.51128 3.43723 4.32287 3.59606 4.16421C3.75472 4.00538 3.94313 3.87937 4.15052 3.7934C4.35791 3.70743 4.58021 3.66318 4.80471 3.66318C5.02921 3.66318 5.25151 3.70743 5.4589 3.7934C5.66629 3.87937 5.8547 4.00538 6.01335 4.16421L6.0646 4.21546C6.26591 4.41238 6.5216 4.54447 6.79868 4.59472C7.07577 4.64496 7.36156 4.61104 7.61919 4.49734H7.68752C7.94016 4.38906 8.15562 4.20927 8.30738 3.98011C8.45915 3.75095 8.54059 3.4824 8.54169 3.20755V3.06234C8.54169 2.60926 8.72167 2.17474 9.04205 1.85436C9.36242 1.53399 9.79694 1.354 10.25 1.354C10.7031 1.354 11.1376 1.53399 11.458 1.85436C11.7784 2.17474 11.9584 2.60926 11.9584 3.06234V3.13921C11.9594 3.41407 12.0409 3.68261 12.1927 3.91178C12.3444 4.14094 12.5599 4.32073 12.8125 4.429C13.0702 4.54271 13.3559 4.57662 13.633 4.52638C13.9101 4.47614 14.1658 4.34405 14.3671 4.14713L14.4184 4.09588C14.577 3.93704 14.7654 3.81104 14.9728 3.72507C15.1802 3.6391 15.4025 3.59485 15.627 3.59485C15.8515 3.59485 16.0738 3.6391 16.2812 3.72507C16.4886 3.81104 16.677 3.93704 16.8356 4.09588C16.9945 4.25454 17.1205 4.44295 17.2065 4.65033C17.2924 4.85772 17.3367 5.08002 17.3367 5.30452C17.3367 5.52903 17.2924 5.75133 17.2065 5.95871C17.1205 6.1661 16.9945 6.35451 16.8356 6.51317L16.7844 6.56442C16.5875 6.76573 16.4554 7.02141 16.4051 7.2985C16.3549 7.57559 16.3888 7.86137 16.5025 8.119V8.18734C16.6108 8.43997 16.7906 8.65543 17.0197 8.8072C17.2489 8.95896 17.5175 9.04041 17.7923 9.0415H17.9375C18.3906 9.0415 18.8251 9.22149 19.1455 9.54186C19.4659 9.86224 19.6459 10.2968 19.6459 10.7498C19.6459 11.2029 19.4659 11.6374 19.1455 11.9578C18.8251 12.2782 18.3906 12.4582 17.9375 12.4582H17.8606C17.5858 12.4593 17.3172 12.5407 17.0881 12.6925C16.8589 12.8442 16.6791 13.0597 16.5709 13.3123V13.3123Z" stroke="white" stroke-width="2" stroke-linecap="round" stroke-linejoin="round"/>
</g>
<defs>
<clipPath id="clip0_605_331">
<rect width="20.5" height="20.5" fill="white" transform="translate(0 0.5)"/>
</clipPath>
</defs>
</svg>
